<svg width="712" height="348" xmlns="http://www.w3.org/2000/svg" transform="rotate(176.718 258.379 33.0196) matrix(0.389269 0 0 0.389269 219.913 2.237)" fill-rule="evenodd">

 <g id="imagebot_2">
  <g transform="translate(0 -8.71457e-7) matrix(0.0271438 0 0 0.0271438 77.9984 9.14263)" id="imagebot_63">
   <path d="M14883,1782C14883,1207 14577,740 14200,740C13823,740 13517,1207 13517,1782C13517,1895 13823,1987 14200,1987C14577,1987 14883,1895 14883,1782z" id="imagebot_65" fill="#000000"/>
   <circle cx="14200" cy="437" r="437" id="imagebot_64" fill="#000000"/>
  </g>
  <g transform="translate(0 -8.71457e-7) matrix(0.0341432 0 0 0.0341432 0 -18.0537)" id="imagebot_58">
   <path d="M5406,9923C5406,7646 4196,5799 2703,5799C1211,5799 0,7646 0,9923C0,10371 1210,10734 2703,10734C4195,10734 5406,10371 5406,9923z" id="imagebot_60" fill="#000000"/>
   <circle cx="2703" cy="4600" r="1730" id="imagebot_59" fill="#000000"/>
  </g>
  <g transform="translate(0 -8.71457e-7) matrix(0.0374399 0.00250965 -0.00250965 0.0374399 3.21472 -38.998)" id="imagebot_56" fill="#91bf02">
   <path d="M5880,8428L16374,5336L5943,8704C5865,8728 5788,8686 5771,8609C5754,8533 5802,8451 5880,8427L5880,8428z" id="imagebot_57" fill="#7f7f7f"/>
  </g>
  <line y1="9453.3281" x2="1032.319" x1="639.74347" y2="9332.125" class="fil3" id="imagebot_55" fill="none" transform="translate(0 -8.71457e-7) matrix(1 0 0 1 -434.167 -9139.27)"/>
  <g transform="translate(0 -8.71457e-7) matrix(0.037524 0 0 0.037524 -16.2278 -7.37399)" id="imagebot_53" stroke="#e16c0f" fill="#e16c0f">
   <path d="M10692,4182L16374,4761L10726,4326C10684,4322 10642,4287 10633,4247C10624,4207 10650,4178 10692,4182z" id="imagebot_54" stroke-linejoin="round" stroke-width="33.87" stroke="#666666" fill="#7f7f7f"/>
  </g>
  <line y1="9291.5244" x2="1032.319" x1="819.78326" y2="9310.5488" class="fil3" id="imagebot_52" fill="none" transform="translate(0 -8.71457e-7) matrix(1 0 0 1 -434.167 -9139.27)"/>
  <g transform="translate(0 -8.71457e-7) matrix(0.0512344 -0.0155021 0.0154137 0.0515281 -300.667 183.903)" id="imagebot_50">
   <path d="M14884,2096L16820,4063L14837,2119C14832,2114 14839,2105 14852,2099C14865,2093 14880,2092 14884,2096z" id="imagebot_51" stroke-linejoin="round" stroke-width="33.87" stroke="#898989" fill="#808080"/>
  </g>
  <line y1="9210.96" x2="1049.0544" x1="975.54541" y2="9284.3193" class="fil3" id="imagebot_49" fill="none" transform="translate(0 -8.71457e-7) matrix(1 0 0 1 -434.167 -9139.27)"/>
  <g transform="translate(0 -8.71457e-7) matrix(0.0321983 0 0 0.0283523 -135.719 138.258)" id="imagebot_47" stroke="#91bf02" fill="#91bf02">
   <path d="M9973.4941,3314.4196L12978.245,931.11459L10055.77,3369.3513C10033.688,3387.1059 9997.4232,3389.5976 9974.782,3374.13C9952.1427,3358.6626 9951.4114,3332.1742 9973.4941,3314.4196z" id="imagebot_48" stroke-miterlimit="4" stroke-linejoin="round" stroke-width="58.278" stroke="#7f7f7f" fill="#7f7f7f"/>
  </g>
  <g transform="translate(0 -8.71457e-7) matrix(-0.0102959 -0.019149 0.0207947 -0.00873672 324.351 337.003)" id="imagebot_45" stroke="#e16c0f" fill="#e16c0f">
   <path d="M9973.4941,3314.4196L12978.245,931.11459L10055.77,3369.3513C10033.688,3387.1059 9997.4232,3389.5976 9974.782,3374.13C9952.1427,3358.6626 9951.4114,3332.1742 9973.4941,3314.4196z" id="imagebot_46" stroke-miterlimit="4" stroke-linejoin="round" stroke-width="58.278" stroke="#7f7f7f" fill="#7f7f7f"/>
  </g>
  <g transform="translate(0 -8.71457e-7) matrix(0.037524 0 0 0.037524 0.61014 -1.16989)" id="imagebot_42" fill="#1476cf">
   <path d="M2375.1228,790.39035C2375.1228,545.09665 2244.9544,346.46707 2084.0859,346.46707C1923.5244,346.46707 1793.049,545.40362 1793.049,790.39035C1793.049,838.58953 1923.2174,877.57862 2084.0859,877.57862C2244.6474,877.57862 2375.1228,838.58953 2375.1228,790.39035z" id="imagebot_44" fill="#000000"/>
   <circle cx="9122" cy="2328" r="607" transform="matrix(0.30700093,0,0,0.30700093,-716.37669,-497.17148)" id="imagebot_43" fill="#000000"/>
  </g>
  <g transform="translate(0 -8.71457e-7) matrix(-0.00694414 -0.0129152 0.0140252 -0.00589255 172.845 206.272)" id="imagebot_40" stroke="#333333" fill="#333333">
   <path d="M9973.4941,3314.4196L12978.245,931.11459L10055.77,3369.3513C10033.688,3387.1059 9997.4232,3389.5976 9974.782,3374.13C9952.1427,3358.6626 9951.4114,3332.1742 9973.4941,3314.4196z" id="imagebot_41" stroke-miterlimit="4" stroke-linejoin="round" stroke-width="58.278" stroke="#333333" fill="#333333"/>
  </g>
  <g transform="translate(0 -8.71457e-7) matrix(-0.0217839 -0.00126159 0.00121105 -0.0209113 651.743 151.349)" id="imagebot_38" stroke="#808080" fill="#808080">
   <path d="M9973.4941,3314.4196L12978.245,931.11459L10055.77,3369.3513C10033.688,3387.1059 9997.4232,3389.5976 9974.782,3374.13C9952.1427,3358.6626 9951.4114,3332.1742 9973.4941,3314.4196z" id="imagebot_39" stroke-miterlimit="4" stroke-linejoin="round" stroke-width="58.278" stroke="#808080" fill="#7f7f7f"/>
  </g>
  <title/>
  <g transform="translate(0 -8.71457e-7)" id="imagebot_3">
   <path d="M642.43253,9210.3248C642.43253,9190.1027 631.7014,9173.7275 618.43939,9173.7275C605.20266,9173.7275 594.4462,9190.128 594.4462,9210.3248C594.4462,9214.2982 605.17733,9217.5126 618.43939,9217.5126C631.67612,9217.5126 642.43253,9214.2982 642.43253,9210.3248z" id="imagebot_37" fill="#000000" transform="translate(-5 -4.99997) matrix(1 0 0 1 -429.167 -9134.27)"/>
   <circle cx="9122" cy="2328" r="607" transform="translate(-5 -4.99997) matrix(0.0253093 0 0 0.0253093 -41.5987 -30.0938)" id="imagebot_36" fill="#000000"/>
  </g>
  <g id="imagebot_68">
   <path d="M1146.1292,9330.4744C1146.1292,9289.686 1124.4401,9256.5898 1097.6857,9256.5898C1070.9313,9256.5898 1049.2421,9289.686 1049.2421,9330.4744C1049.2421,9338.5046 1070.9313,9344.9963 1097.6857,9344.9963C1124.4401,9344.9963 1146.1292,9338.5046 1146.1292,9330.4744z" id="imagebot_67" fill="#000000" transform="translate(0 -8.71457e-7) matrix(1 0 0 1 -434.167 -9139.27)"/>
   <circle cx="18116" cy="2750" r="826" transform="translate(0 -8.71457e-7) matrix(0.037524 0 0 0.037524 -16.2278 -7.37399)" id="imagebot_66" fill="#000000"/>
  </g>
  <g id="imagebot_69" transform="rotate(267.446 170.285 156.824) matrix(0.0218042 0 0 0.037524 -124.05 -10.8898)" stroke="#e16c0f" fill="#e16c0f">
   <path id="imagebot_70" d="M10692,4182L16374,4761L10726,4326C10684,4322 10642,4287 10633,4247C10624,4207 10650,4178 10692,4182z" stroke-linejoin="round" stroke-width="33.87" stroke="#666666" fill="#7f7f7f"/>
  </g>
  <g id="imagebot_71" transform="translate(0 -8.71457e-7) matrix(0.037524 0 0 0.037524 -16.2278 -7.37399)" stroke="#e16c0f" fill="#e16c0f">
   <path id="imagebot_72" d="M10692,4182L16374,4761L10726,4326C10684,4322 10642,4287 10633,4247C10624,4207 10650,4178 10692,4182z" stroke-linejoin="round" stroke-width="33.87" stroke="#666666" fill="#7f7f7f"/>
  </g>
  <g id="imagebot_73" transform="rotate(148.624 329.087 49.5486) matrix(0.0725832 -0.0219616 0.0218364 0.0729993 -886.816 172.458)">
   <path id="imagebot_74" d="M14884,2096L16820,4063L14837,2119C14832,2114 14839,2105 14852,2099C14865,2093 14880,2092 14884,2096z" stroke-linejoin="round" stroke-width="33.87" stroke="#898989" fill="#808080"/>
  </g>
  <g id="imagebot_75">
   <path d="M795.80556,9289.2732C795.80556,9259.2916 779.89541,9235.0136 760.23282,9235.0136C740.6078,9235.0136 724.66017,9259.3291 724.66017,9289.2732C724.66017,9295.1645 740.57033,9299.93 760.23282,9299.93C779.85784,9299.93 795.80556,9295.1645 795.80556,9289.2732z" id="imagebot_62" fill="#000000" transform="translate(0 -8.71457e-7) matrix(1 0 0 1 -434.167 -9139.27)"/>
   <circle cx="9122" cy="2328" r="607" transform="translate(0 -8.71457e-7) matrix(0.037524 0 0 0.037524 -16.2278 -7.37399)" id="imagebot_61" fill="#000000"/>
  </g>
 </g>
 <metadata id="imagebot_1">image/svg+xmlOpenclipart</metadata>
</svg>